<?xml version="1.0" encoding="UTF-8"?>
<svg id="_レイヤー_1" data-name="レイヤー_1" xmlns="http://www.w3.org/2000/svg" version="1.1" viewBox="0 0 344.9843725 246.8376047">
  <!-- Generator: Adobe Illustrator 29.8.2, SVG Export Plug-In . SVG Version: 2.1.1 Build 3)  -->
  <defs>
    <style>
      .st0 {
        fill: #231815;
      }
    </style>
  </defs>
  <path class="st0" d="M246.8426586,0c-54.1171776,0-98.1467678,44.0295902-98.1467678,98.1467678,0,27.872267-22.6768562,50.5491231-50.5491231,50.5491231s-50.5491231-22.6768562-50.5491231-50.5491231H0v148.690837h47.5976446v-64.7221582c14.7877159,8.9365614,32.0467896,14.178089,50.5491231,14.178089,54.1171776,0,98.1467678-44.0295902,98.1467678-98.1467678,0-27.872267,22.6768562-50.5491231,50.5491231-50.5491231s50.5440692,22.6768562,50.5440692,50.5491231-22.6718023,50.5491231-50.5440692,50.5491231v47.5976446c54.1171776,0,98.1417139-44.0295902,98.1417139-98.1467678S300.9598363,0,246.8426586,0Z"/>
  <g>
    <g>
      <path class="st0" d="M150.9597109,224.7968063h3.248558l.0306055,1.8887982c1.0930545-1.3903653,3.008086-2.186109,5.0455396-2.186109,4.2191904,0,7.7606869,3.3053968,7.7606869,8.1148366,0,4.7482287-3.5414966,8.0886033-7.7606869,8.0886033-1.8581926,0-3.6289409-.6558327-4.7526009-1.8275871.0612111,1.1717544.0918166,2.4484421.0918166,3.6551742v3.751363h-3.6639187v-21.4850792ZM158.8122144,237.3363275c2.627703,0,4.5471067-1.9150315,4.5471067-4.7219954,0-2.8331973-1.9194037-4.7482287-4.5471067-4.7482287-2.5096531,0-4.4552901,1.7401428-4.4552901,4.7482287,0,2.9818527,1.945637,4.7219954,4.4552901,4.7219954Z"/>
      <path class="st0" d="M169.1393933,232.6143321c0-4.7482287,3.6027076-8.1760476,8.1760476-8.1760476s8.1760476,3.4278189,8.1760476,8.1760476-3.6027076,8.2022809-8.1760476,8.2022809-8.1760476-3.4540522-8.1760476-8.2022809ZM177.3154409,237.3625608c2.566492,0,4.5165012-1.9412648,4.5165012-4.7482287s-1.9500092-4.7482287-4.5165012-4.7482287-4.5165012,1.9412648-4.5165012,4.7482287,1.9500092,4.7482287,4.5165012,4.7482287Z"/>
      <path class="st0" d="M188.3771524,217.6263688h3.6639187v4.57334h-3.6639187v-4.57334ZM188.3771524,224.7968063h3.6639187v15.6088182h-3.6639187v-15.6088182Z"/>
      <path class="st0" d="M201.9922392,224.4382845c4.0443016,0,6.4927437,2.5096531,6.4927437,6.6720046v9.2953354h-3.6595465v-9.1816578c0-2.1773646-1.0318434-3.3578634-2.8331973-3.3578634-1.8275871,0-2.8331973,1.1804989-2.8331973,3.3578634v9.1816578h-3.6595465v-9.2953354c0-4.1623515,2.4178365-6.6720046,6.4927437-6.6720046Z"/>
      <path class="st0" d="M212.9665063,228.1022031h-1.8887982v-3.3053968h1.8887982v-4.1623515l3.6595465-1.2417099v5.4040614h1.9194037v3.3053968h-1.9194037l-.0306055,12.3034214h-3.6595465l.0306055-12.3034214Z"/>
      <path class="st0" d="M228.0375417,240.4056245v-3.1567414c1.2417099.1748887,2.2429478.2360998,2.9250138.2360998,1.6220929,0,2.3609977-.4721995,2.3609977-1.4428319,0-.7695104-.4721995-1.3291543-1.7139094-2.186109l-.9750046-.682066c-1.9194037-1.3291543-2.7413807-2.5708642-2.7413807-4.2760292,0-2.6845418,2.0024758-4.3110069,5.4302947-4.3110069.7082993,0,1.5608818.0612111,2.4484421.2098665v2.8856639c-.8875603-.1136777-1.565254-.139911-1.9762425-.139911-1.565254,0-2.3609977.4721995-2.3609977,1.2941765,0,.5946216.4721995,1.0930545,1.6789317,1.8887982l.9443991.6470883c2.1248979,1.4515764,3.0124582,2.8069639,3.0124582,4.6345511,0,2.8944083-2.186109,4.6083178-5.9330998,4.6083178-.7957437,0-1.9500092-.0961888-3.0999026-.2098665Z"/>
      <path class="st0" d="M246.1866186,232.6143321c0-4.7482287,3.6027076-8.1760476,8.1760476-8.1760476s8.1760476,3.4278189,8.1760476,8.1760476-3.6027076,8.2022809-8.1760476,8.2022809-8.1760476-3.4540522-8.1760476-8.2022809ZM254.3626662,237.3625608c2.566492,0,4.5165012-1.9412648,4.5165012-4.7482287s-1.9500092-4.7482287-4.5165012-4.7482287-4.5165012,1.9412648-4.5165012,4.7482287,1.9500092,4.7482287,4.5165012,4.7482287Z"/>
      <path class="st0" d="M270.4742895,224.7968063h1.8887982v3.3053968h-1.5346485c-1.3291543,0-1.8625649.5246662-1.8625649,1.8887982v10.4146232h-3.6551742v-10.3271789c0-3.6639187,1.8275871-5.2816393,5.1635894-5.2816393Z"/>
      <path class="st0" d="M274.737202,217.6263688h3.6551742v4.57334h-3.6551742v-4.57334ZM274.737202,224.7968063h3.6551742v15.6088182h-3.6551742v-15.6088182Z"/>
      <path class="st0" d="M285.2217808,242.9764887h3.4846577c3.248558,0,5.0761451-1.2154766,5.1067506-4.0749072v-.682066c-1.0362157,1.2417099-2.7151474,1.9237759-4.7526009,1.9237759-4.3372402,0-7.7912924-3.069297-7.7912924-7.7650591,0-4.6607844,3.4802855-7.8787368,7.7300814-7.8787368,2.0680591,0,3.9568573.7695104,5.0805173,2.186109l.0262333-1.8887982h3.248558v13.7812311c0,5.194195-3.3360023,7.7038481-8.7356915,7.7038481h-3.3972134v-3.3053968ZM289.4715766,236.8903613c2.5096531,0,4.4858957-1.6526984,4.4858957-4.4858957,0-2.8594306-1.9762425-4.5383623-4.512129-4.5383623-2.627703,0-4.5165012,1.8275871-4.5165012,4.512129,0,2.6583085,1.8887982,4.512129,4.5427345,4.512129Z"/>
      <path class="st0" d="M301.0054877,217.6263688h3.6639187v4.57334h-3.6639187v-4.57334ZM301.0054877,224.7968063h3.6639187v15.6088182h-3.6639187v-15.6088182Z"/>
      <path class="st0" d="M314.6249467,224.4382845c4.0443016,0,6.4927437,2.5096531,6.4927437,6.6720046v9.2953354h-3.6595465v-9.1816578c0-2.1773646-1.0318434-3.3578634-2.8331973-3.3578634-1.8319593,0-2.8331973,1.1804989-2.8331973,3.3578634v9.1816578h-3.6595465v-9.2953354c0-4.1623515,2.4222088-6.6720046,6.4927437-6.6720046Z"/>
      <path class="st0" d="M324.5017871,236.4531395h3.6595465v3.9524851h-3.6595465v-3.9524851Z"/>
    </g>
    <g>
      <rect class="st0" x="222.1569592" y="217.5988351" width="4.1082123" height="4.1082123"/>
      <polygon class="st0" points="226.2651715 225.8150831 224.2110654 225.8150831 222.1569592 221.7068708 224.2110654 221.7068708 226.2651715 225.8150831"/>
    </g>
  </g>
</svg>