<?xml version="1.0" encoding="UTF-8"?>
<svg id="_レイヤー_2" xmlns="http://www.w3.org/2000/svg" version="1.1" viewBox="0 0 595.8 595.8">
  <!-- Generator: Adobe Illustrator 29.3.1, SVG Export Plug-In . SVG Version: 2.1.0 Build 151)  -->
  <defs>
    <style>
      .st0 {
        fill: #fff;
        fill-opacity: 0;
      }

      .st1 {
        fill: #b5b5b6;
      }
    </style>
  </defs>
  <g id="_レイヤー_1-2">
    <rect class="st0" y="0" width="595.8" height="595.8"/>
    <path class="st1" d="M475.1,42.6c-106.7,14.7-208.8,214.8-259.1,307.5-12.6,23.3,9.4,35.4,22.4,13.1,9.3-16,32.1-62.5,44.4-60.1,58.8,9.8,90.2-28.5,67.9-52.7,74.8,1.5,111.9-39.6,90.7-64.6,22.3,7.1,55.1,6,83.8-9.6,61.2-33.4,57.5-148.4-50.1-133.6h0Z"/>
    <path class="st1" d="M462.3,243.7c-9.7,9.1-27,22.1-41.5,27.8v207.1c0,4.6-1.8,8.5-4.8,11.6-3,3-7,4.8-11.5,4.8H118.4c-4.6,0-8.5-1.8-11.6-4.8-3-3-4.8-7-4.8-11.6V192.6c0-4.6,1.8-8.5,4.8-11.6,3-3,7-4.8,11.6-4.8h160.4c11.2-17.1,22.7-33.6,34.5-49H118.4c-18,0-34.5,7.3-46.2,19.1-11.8,11.8-19.2,28.2-19.1,46.2v285.9c0,18,7.4,34.5,19.1,46.2,11.8,11.8,28.2,19.2,46.2,19.1h286c18,0,34.5-7.4,46.2-19.1,11.8-11.8,19.2-28.3,19.1-46.2v-235.9s-2.7-3.5-7.5,1h0Z"/>
  </g>
</svg>