<?xml version="1.0" encoding="UTF-8"?>
<svg id="_レイヤー_2" xmlns="http://www.w3.org/2000/svg" version="1.1" viewBox="0 0 595.8 595.8">
  <!-- Generator: Adobe Illustrator 29.3.1, SVG Export Plug-In . SVG Version: 2.1.0 Build 151)  -->
  <defs>
    <style>
      .st0 {
        fill: #fff;
        fill-opacity: 0;
      }

      .st1 {
        fill: #b5b5b6;
      }
    </style>
  </defs>
  <g id="_レイヤー_1-2">
    <rect class="st0" y="0" width="595.8" height="595.8"/>
    <polygon class="st1" points="386.2 295.6 442.4 206.7 371.3 161.8 315.1 250.7 386.2 295.6"/>
    <path class="st1" d="M374.1,36l-24.6,43.3h0s-98.1,179.5-98.1,179.5l-8.2,14.8-.5,1.4v.3c-.1,0-.2.3-.2.3-3,11.5-4,22.3-4,31.7s.8,15.4,1.7,20.9l-23.1,36.5c-3.7,5.8-5.4,12.3-5.4,18.7,0,11.6,5.8,23,16.3,29.7l48.9,30.9c5.8,3.6,12.3,5.4,18.7,5.4,11.6,0,23-5.8,29.7-16.3l23.1-36.5c11.3-3.3,29.5-10.3,46.5-24.8l.2-.2.7-.7.5-.5,10.5-14.8,118.6-165.1,28.6-40.8-180-113.7h0ZM306.8,421.3c-3.9,6.1-12,7.9-18.1,4.1l-48.9-30.9c-6.1-3.9-7.9-12-4.1-18.1l23.3-36.9,71.1,44.9-23.3,36.9h0ZM334.6,377.3l-71.1-44.9s-7-24.3.5-51.9l117.3,74.1c-21.7,18.6-46.7,22.7-46.7,22.7h0ZM385.7,347.5l-117.3-74.1,93.3-172,138.6,87.6-114.6,158.5h0ZM504.8,181.8l-138.6-87.6,15.5-27.5,141.2,89.2-18.2,25.8Z"/>
    <path class="st1" d="M255.1,474.9c-11.3-14-2.5-25.7-16.2-31.7-14.7-6.5-23.8,9-45.7,6.7h-.1c-8.2-1.1-16.7-1.8-25.5-1.8-56.9,0-103.1,25.4-103.1,56.7s46.1,43.3,103.1,43.3,103.1-12,103.1-43.3-5.8-21.2-15.6-29.9h0ZM115.2,497.8c-7.7,0-13.9-5.8-13.9-13s6.2-13,13.9-13,13.9,5.8,13.9,13-6.2,13-13.9,13Z"/>
  </g>
</svg>