<?xml version="1.0" encoding="UTF-8"?>
<svg id="_レイヤー_2" xmlns="http://www.w3.org/2000/svg" version="1.1" viewBox="0 0 595.8 595.8">
  <!-- Generator: Adobe Illustrator 29.3.1, SVG Export Plug-In . SVG Version: 2.1.0 Build 151)  -->
  <defs>
    <style>
      .st0 {
        fill: #fff;
        fill-opacity: 0;
      }

      .st1 {
        fill: #b5b5b6;
      }
    </style>
  </defs>
  <g id="_レイヤー_1-2">
    <rect class="st0" y="0" width="595.8" height="595.8"/>
    <path class="st1" d="M427.8,168.3c-31.1-25.9-84-65.7-93.6-78.5h-18.2v251.2c-5.8-1.6-11.8-2.6-18.1-2.6-36.5,0-66.1,29.6-66.1,66.1s29.6,66.1,66.1,66.1,66.1-29.6,66.1-66.1v-206c0-9.3,4.8-32.3,48,11,25.6,25.6-16.1,41.7-13.6,83.1l6.1-.9c7.5-21.5,36.6-37.3,49.2-51,20.7-22.5,5.2-46.6-25.9-72.6h0Z"/>
    <path class="st1" d="M181.9,359.6l-31.4-13.7c-7.5,18.7-11.2,38.4-11.2,58.7s4.2,42.1,12.5,61.7c0,.2.2.4.3.6l31.4-13.7c-6.6-15.3-9.9-31.7-9.9-48.7,0-15.6,2.8-30.7,8.4-45h0Z"/>
    <path class="st1" d="M413.9,359.6c5.6,14.3,8.4,29.4,8.4,45,0,16.8-3.3,33-9.8,48.5,0,0,0,.1,0,.2l31.3,13.7c8.5-19.7,12.8-40.6,12.8-62.3s-3.8-40.1-11.2-58.7l-31.4,13.7h0Z"/>
    <path class="st1" d="M92.6,320.6l-31.3-13.7c-12.8,31-19.3,63.9-19.3,97.7s6.8,68.1,20.4,100.2l.5,1.1,31.3-13.7c-11.9-27.7-18-57.1-18-87.6,0-29.1,5.5-57.4,16.5-84h0Z"/>
    <path class="st1" d="M534.6,306.9l-31.4,13.7c10.9,26.6,16.5,54.9,16.5,84,0,29.9-5.9,59-17.4,86.4-.2.4-.4.9-.5,1.3l31.3,13.7c13.8-32,20.9-66.1,20.9-101.3s-6.5-66.8-19.3-97.7h0Z"/>
  </g>
</svg>