<?xml version="1.0" encoding="utf-8"?>
<!-- Generator: Adobe Illustrator 27.9.0, SVG Export Plug-In . SVG Version: 6.00 Build 0)  -->
<svg version="1.1" id="レイヤー_1" xmlns="http://www.w3.org/2000/svg" xmlns:xlink="http://www.w3.org/1999/xlink" x="0px"
	 y="0px" viewBox="0 0 421.4 135.5" style="enable-background:new 0 0 421.4 135.5;" xml:space="preserve">
<style type="text/css">
	.st0{fill:#FFFFFF;}
</style>
<g>
	<path class="st0" d="M378.9,120.9V73.4h33.7v-13h-33.7V13.7h42.5v-0.4V0H0v13.7h30.1v120.5h15.3V13.7h71.3v120.5h15.3V74.4h37.7
		v59.9h15.3V13.7h42.5l-27.5,120.5H215l12.4-59.9H250l12.4,59.9h15.1L250.7,13.7h45c-3.7,5.7-5.8,12.6-5.8,20.3
		c0,17.3,14.5,29.9,25.3,37.3c10.6,8,17.7,15.5,17.7,27.9c0,13.6-8.4,22.7-22.5,22.7c-6.6,0-14.7-2.4-19.1-5.4l-3.4,13.2
		c3.8,2.8,13.3,5.8,22.5,5.8c21.5,0,37.7-14.5,37.7-37.7c0-14.9-7.2-27.3-23.3-38.7C312,50,305.1,44.8,305.1,31.5
		c0-7.8,5.8-17.5,12.5-17.7h45.9v120.5h53.6v-13.3H378.9z M169.7,60.4h-37.7V13.7h37.7V60.4z"/>
	<ellipse transform="matrix(0.7071 -0.7071 0.7071 0.7071 -60.72 98.5557)" class="st0" cx="88.6" cy="122.6" rx="11.6" ry="11.6"/>
</g>
</svg>
